<svg xmlns="http://www.w3.org/2000/svg" width="161" height="60" viewBox="0 0 161 60" fill="none"><path d="M29.4341 0.226807C13.1788 0.226807 0 13.404 0 29.6609C0 45.9178 13.1788 59.095 29.4341 59.095C45.6894 59.095 58.8682 45.9162 58.8682 29.6609C58.8682 13.4056 45.691 0.226807 29.4341 0.226807ZM24.2101 35.1633H21.3651V28.2173L17.5676 32.0148L15.5562 34.0262L13.5448 32.0133L9.71128 28.1798V35.1633H6.86624V25.3363L9.71128 28.1798V24.1585L15.5546 30.0034L21.3651 24.193V28.2173L24.2101 25.3723V35.1633ZM42.5425 35.1633H39.6991V28.2173L35.9 32.0148L33.8901 34.0262L28.0437 28.1798V35.1633H25.1986V25.3363L28.0437 28.1798V24.1585L33.8886 30.0034L39.6991 24.193V28.2173L42.5425 25.3723V35.1633ZM52.002 32.3183V35.1633H43.531V27.0364H46.376V24.193H52.002V27.0364H46.376V32.3183H52.002Z" fill="black"></path><path d="M74.4576 32.9924H70.6647L69.3728 23.68H69.1288V32.9924H67.1581V24.2587C67.1581 23.827 67.5084 23.4767 67.9401 23.4767H70.4739C70.8649 23.4767 71.1949 23.7645 71.2481 24.1508L72.4462 32.7891H72.6902L73.8757 24.1524C73.9289 23.7645 74.2589 23.4767 74.6499 23.4767H77.1822C77.6138 23.4767 77.9642 23.827 77.9642 24.2587V32.9924H75.9935V23.68H75.7495L74.4576 32.9924Z" fill="black"></path><path d="M97.7981 32.9924H94.0052L92.7133 23.68H92.4693V32.9924H90.4986V24.2587C90.4986 23.827 90.8489 23.4767 91.2806 23.4767H93.8144C94.2054 23.4767 94.5354 23.7645 94.5886 24.1508L95.7867 32.7891H96.0307L97.2163 24.1524C97.2694 23.7645 97.5994 23.4767 97.9905 23.4767H100.523C100.954 23.4767 101.305 23.827 101.305 24.2587V32.9924H99.334V23.68H99.09L97.7981 32.9924Z" fill="black"></path><path d="M78.7665 26.195H80.7513L82.1652 32.7891H82.4373L83.8513 26.195H85.836L84.2047 33.4132C84.1406 33.7573 84.0389 34.0701 83.8982 34.3516C83.7574 34.6332 83.5791 34.8772 83.3617 35.0852C83.1443 35.2932 82.894 35.459 82.6141 35.581C82.3326 35.703 82.0119 35.7828 81.649 35.8187L78.9026 36.0502V34.0795L81.7038 34.1467C81.8946 34.1561 82.0135 34.142 82.0635 34.1061C82.1136 34.0701 82.1558 33.9606 82.1933 33.7792L82.3967 32.9909H80.2899L78.768 26.1935L78.7665 26.195Z" fill="black"></path><path d="M109.219 30.0833C109.111 31.089 108.773 31.8601 108.207 32.395C107.641 32.9299 106.844 33.1974 105.822 33.1974C104.634 33.1974 103.735 32.8736 103.124 32.2261C102.512 31.5786 102.205 30.7011 102.205 29.5953C102.205 28.4895 102.509 27.6121 103.116 26.9646C103.723 26.3171 104.602 25.9933 105.753 25.9933C106.832 25.9933 107.637 26.3014 108.172 26.9177C108.707 27.5339 108.975 28.3988 108.975 29.514H104.121V29.7048C104.121 30.3492 104.254 30.82 104.522 31.1187C104.789 31.4175 105.223 31.5676 105.82 31.5676C106.3 31.5676 106.652 31.4519 106.874 31.2204C107.096 30.9889 107.234 30.6104 107.289 30.0849H109.219V30.0833ZM106.99 28.4927C106.971 28.2111 106.86 27.9875 106.657 27.8201C106.453 27.6528 106.152 27.5683 105.753 27.5683C105.354 27.5683 105.036 27.6387 104.802 27.7794C104.566 27.9202 104.394 28.1579 104.286 28.4927H106.991H106.99Z" fill="black"></path><path d="M110.115 32.9924V26.195H112.086L111.95 27.623H112.222C112.358 27.0709 112.595 26.6596 112.935 26.3921C113.274 26.1246 113.758 25.9917 114.383 25.9917C115.009 25.9917 115.47 26.1231 115.797 26.3858C116.124 26.6486 116.346 27.0615 116.463 27.623H116.736C116.881 27.0709 117.12 26.6596 117.457 26.3921C117.791 26.1246 118.273 25.9917 118.897 25.9917C119.667 25.9917 120.231 26.2248 120.589 26.6924C120.948 27.1601 121.126 27.8592 121.126 28.7929V32.994H119.019L119.291 29.1198C119.327 28.5943 119.23 28.2346 118.999 28.0391C118.767 27.8436 118.453 27.7466 118.054 27.7466C117.574 27.7466 117.211 27.8874 116.967 28.1689C116.723 28.4504 116.599 28.9165 116.599 29.5687V32.994H114.493L114.765 29.1198C114.81 28.5943 114.718 28.2346 114.486 28.0391C114.255 27.8436 113.936 27.7466 113.528 27.7466C113.057 27.7466 112.699 27.8874 112.453 28.1689C112.209 28.4504 112.086 28.9165 112.086 29.5687V32.994H110.115V32.9924Z" fill="black"></path><path d="M129.122 30.0833C129.014 31.089 128.676 31.8601 128.11 32.395C127.543 32.9299 126.747 33.1974 125.724 33.1974C124.537 33.1974 123.638 32.8736 123.026 32.2261C122.415 31.5786 122.108 30.7011 122.108 29.5953C122.108 28.4895 122.412 27.6121 123.019 26.9646C123.625 26.3171 124.504 25.9933 125.656 25.9933C126.735 25.9933 127.54 26.3014 128.075 26.9177C128.61 27.5339 128.878 28.3988 128.878 29.514H124.024V29.7048C124.024 30.3492 124.157 30.82 124.425 31.1187C124.692 31.4175 125.125 31.5676 125.723 31.5676C126.203 31.5676 126.555 31.4519 126.777 31.2204C126.999 30.9889 127.137 30.6104 127.192 30.0849H129.122V30.0833ZM126.893 28.4927C126.874 28.2111 126.763 27.9875 126.56 27.8201C126.356 27.6528 126.054 27.5683 125.656 27.5683C125.257 27.5683 124.939 27.6387 124.705 27.7794C124.468 27.9202 124.296 28.1579 124.189 28.4927H126.894H126.893Z" fill="black"></path><path d="M131.921 28.2346C131.921 29.3216 132.123 30.1318 132.526 30.6621C132.93 31.1923 133.535 31.4566 134.341 31.4566C135.038 31.4566 135.579 31.2814 135.966 30.9326C136.35 30.5838 136.593 30.0239 136.693 29.2544H138.759C138.651 30.6042 138.227 31.5989 137.487 32.2386C136.749 32.8783 135.714 33.1974 134.381 33.1974C132.877 33.1974 131.746 32.7876 130.989 31.9665C130.232 31.1469 129.853 29.9019 129.853 28.2346C129.853 26.5673 130.218 25.3239 130.948 24.5028C131.677 23.6832 132.758 23.2719 134.19 23.2719C135.468 23.2719 136.454 23.5909 137.148 24.2306C137.841 24.8703 138.243 25.8651 138.351 27.2148H136.285C136.185 26.4453 135.966 25.8854 135.625 25.5366C135.285 25.1878 134.793 25.0126 134.15 25.0126C133.416 25.0126 132.861 25.2785 132.484 25.8088C132.109 26.339 131.919 27.1476 131.919 28.2346H131.921Z" fill="black"></path><path d="M139.411 29.5937C139.411 29.0416 139.497 28.5427 139.669 28.0985C139.841 27.6543 140.089 27.2758 140.411 26.963C140.733 26.6502 141.122 26.4109 141.581 26.2419C142.039 26.0746 142.552 25.9901 143.123 25.9901C143.694 25.9901 144.194 26.0746 144.652 26.2419C145.111 26.4093 145.5 26.6502 145.822 26.963C146.145 27.2758 146.392 27.6543 146.564 28.0985C146.736 28.5427 146.822 29.0416 146.822 29.5937C146.822 30.1458 146.736 30.6448 146.564 31.089C146.392 31.5332 146.145 31.9117 145.822 32.2245C145.5 32.5373 145.111 32.7782 144.652 32.9455C144.194 33.1129 143.684 33.1973 143.123 33.1973C142.561 33.1973 142.037 33.1129 141.581 32.9455C141.122 32.7782 140.733 32.5373 140.411 32.2245C140.089 31.9117 139.841 31.5332 139.669 31.089C139.497 30.6448 139.411 30.1458 139.411 29.5937ZM141.329 29.5937C141.329 30.2287 141.479 30.7151 141.778 31.0546C142.076 31.394 142.521 31.5644 143.11 31.5644C143.7 31.5644 144.157 31.394 144.457 31.0546C144.756 30.7151 144.906 30.2272 144.906 29.5937C144.906 28.9603 144.756 28.4723 144.457 28.1329C144.158 27.7935 143.714 27.623 143.124 27.623C142.535 27.623 142.078 27.7935 141.778 28.1329C141.479 28.4723 141.329 28.9603 141.329 29.5937Z" fill="black"></path><path d="M149.187 26.1951C149.894 26.1951 150.424 26.3718 150.778 26.7253C151.131 27.0788 151.308 27.6184 151.308 28.3425V31.3065H153.279V32.9925H147.42V31.3065H149.418V28.0986C149.418 27.9077 149.395 27.7857 149.351 27.731C149.306 27.6763 149.189 27.6637 148.998 27.6903L147.828 27.8671V26.1951H149.187ZM148.752 24.4136C148.752 24.0695 148.858 23.8036 149.071 23.6175C149.284 23.4314 149.595 23.3391 150.002 23.3391C150.408 23.3391 150.72 23.4314 150.932 23.6175C151.145 23.8036 151.252 24.068 151.252 24.4136C151.252 24.7593 151.145 25.0095 150.932 25.1957C150.72 25.3818 150.408 25.4741 150.002 25.4741C149.595 25.4741 149.284 25.3818 149.071 25.1957C148.858 25.0095 148.752 24.7499 148.752 24.4136Z" fill="black"></path><path d="M154.095 32.9924V26.195H156.066L155.929 27.7309H156.202C156.319 27.1788 156.561 26.7503 156.929 26.4468C157.296 26.1434 157.809 25.9917 158.471 25.9917C159.369 25.9917 160.015 26.2294 160.409 26.7049C160.803 27.1804 161 27.8764 161 28.7914V32.9924H158.893L159.165 29.1183C159.192 28.6928 159.089 28.3706 158.853 28.1532C158.617 27.9358 158.246 27.8264 157.737 27.8264C157.14 27.8264 156.711 27.9781 156.453 28.2815C156.195 28.5849 156.066 29.0135 156.066 29.5656V32.9909H154.095V32.9924Z" fill="black"></path></svg>