<svg xmlns="http://www.w3.org/2000/svg" width="385" height="94" viewBox="0 0 385 94" fill="none"><path d="M175.19 36.6945V88.235H162.02V23.5354L175.19 36.6945Z" stroke="black" stroke-width="11"></path><path d="M87.8221 63.0947L87.8198 63.0971L74.63 76.2946L61.4302 63.0871L61.4291 63.0859L30.48 32.1368V13.5413L70.7413 53.7945L74.6304 57.6828L78.5191 53.7941L118.48 13.8332V32.4558L87.8221 63.0947Z" stroke="black" stroke-width="11"></path><path d="M129.48 88.235V37.0125L142.63 23.857V88.235H129.48Z" stroke="black" stroke-width="11"></path><path d="M341.89 19.2051V6.05505H378.67V19.2051H341.89Z" stroke="black" stroke-width="11"></path><path d="M285.18 88.235V37.0138L298.35 23.8492V88.235H285.18Z" stroke="black" stroke-width="11"></path><path d="M336.39 75.0651H378.68V88.235H317.74V30.2051H330.89V69.5651V75.0651H336.39Z" stroke="black" stroke-width="11"></path><path d="M186.19 32.1372V13.5432L226.441 53.7941L230.33 57.6832L234.219 53.7941L274.18 13.8332V32.4558L243.522 63.0947L243.519 63.0982L230.338 76.2942L186.19 32.1372Z" stroke="black" stroke-width="11"></path><path d="M19.48 36.6938V88.235H6.32001V23.5393L19.48 36.6938Z" stroke="black" stroke-width="11"></path></svg>